<svg width="630" height="139" viewBox="0 0 630 139" fill="none" xmlns="http://www.w3.org/2000/svg">
<path d="M588.174 13.7H628.701V22.548H598.76V36.847H625.62V45.616H598.76V60.152H629.649V69H588.174V13.7Z" fill="white"/>
<path d="M534.385 13.7H579.494V22.627H562.272V69H551.607V22.627H534.385V13.7Z" fill="white"/>
<path d="M503.434 13.7H514.257L538.194 69H526.897L508.49 24.365L490.162 69H479.102L503.434 13.7ZM491.821 48.302H524.764V56.913H491.821V48.302Z" fill="white"/>
<path d="M437.816 13.7H482.925V22.627H465.703V69H455.038V22.627H437.816V13.7Z" fill="white"/>
<path d="M427.946 27.3672C425.997 26.1558 423.996 25.1552 421.942 24.3652C419.941 23.5752 418.045 23.0222 416.254 22.7062C414.463 22.3375 412.831 22.1532 411.356 22.1532C408.881 22.1532 406.879 22.6272 405.352 23.5752C403.877 24.5232 403.14 25.9188 403.14 27.7622C403.14 29.4475 403.667 30.8168 404.72 31.8702C405.826 32.9235 407.248 33.7925 408.986 34.4772C410.777 35.1618 412.725 35.8202 414.832 36.4522C416.939 37.0842 419.045 37.7952 421.152 38.5852C423.259 39.3225 425.181 40.2968 426.919 41.5082C428.71 42.7195 430.132 44.2732 431.185 46.1692C432.238 48.0652 432.765 50.4352 432.765 53.2792C432.765 56.7025 431.843 59.6255 430 62.0482C428.157 64.4708 425.629 66.3405 422.416 67.6572C419.256 68.9738 415.648 69.6322 411.593 69.6322C408.644 69.6322 405.747 69.2635 402.903 68.5262C400.112 67.7362 397.452 66.6828 394.924 65.3662C392.449 64.0495 390.21 62.5222 388.209 60.7842L392.633 52.1732C394.529 53.9112 396.583 55.4122 398.795 56.6762C401.007 57.8875 403.219 58.8355 405.431 59.5202C407.696 60.1522 409.802 60.4682 411.751 60.4682C414.753 60.4682 417.07 59.8888 418.703 58.7302C420.388 57.5715 421.231 55.9388 421.231 53.8322C421.231 52.0942 420.678 50.6985 419.572 49.6452C418.519 48.5918 417.123 47.7228 415.385 47.0382C413.647 46.3008 411.698 45.6688 409.539 45.1422C407.432 44.5628 405.326 43.9045 403.219 43.1672C401.112 42.3772 399.164 41.4028 397.373 40.2442C395.635 39.0328 394.213 37.5055 393.107 35.6622C392.054 33.8188 391.527 31.4752 391.527 28.6312C391.527 25.4185 392.396 22.6535 394.134 20.3362C395.872 17.9662 398.268 16.1492 401.323 14.8852C404.43 13.5685 408.064 12.9102 412.225 12.9102C415.912 12.9102 419.493 13.4368 422.969 14.4902C426.498 15.5435 429.579 16.9392 432.212 18.6772L427.946 27.3672Z" fill="white"/>
<path d="M361.285 13.7C368.29 13.7 373.715 15.359 377.559 18.677C381.404 21.995 383.326 26.656 383.326 32.66C383.326 38.9273 381.404 43.799 377.559 47.275C373.715 50.751 368.29 52.489 361.285 52.489H344.616L349.277 47.828V69H338.691V13.7H361.285ZM360.811 43.72C364.761 43.72 367.79 42.8246 369.896 41.034C372.056 39.2433 373.135 36.531 373.135 32.897C373.135 29.421 372.056 26.8403 369.896 25.155C367.79 23.417 364.761 22.548 360.811 22.548H344.616L349.277 17.887V48.381L344.616 43.72H360.811Z" fill="white"/>
<path d="M287.354 46.248C287.354 50.7773 288.591 54.3323 291.067 56.913C293.542 59.4936 296.86 60.784 301.021 60.784C305.129 60.784 308.394 59.52 310.817 56.992C313.239 54.4113 314.451 50.83 314.451 46.248V13.7H325.037V46.248C325.037 51.0933 324.062 55.2803 322.114 58.809C320.218 62.285 317.453 64.971 313.819 66.867C310.237 68.763 305.971 69.711 301.021 69.711C296.017 69.711 291.699 68.763 288.065 66.867C284.431 64.971 281.639 62.285 279.691 58.809C277.742 55.2803 276.768 51.0933 276.768 46.248V13.7H287.354V46.248Z" fill="white"/>
<path d="M324.721 70.7C331.726 70.7 337.15 72.359 340.995 75.677C344.84 78.995 346.762 83.656 346.762 89.66C346.762 95.9273 344.84 100.799 340.995 104.275C337.15 107.751 331.726 109.489 324.721 109.489H308.052L312.713 104.828V126H302.127V70.7H324.721ZM324.247 100.72C328.197 100.72 331.225 99.8246 333.332 98.034C335.491 96.2433 336.571 93.531 336.571 89.897C336.571 86.421 335.491 83.8403 333.332 82.155C331.225 80.417 328.197 79.548 324.247 79.548H308.052L312.713 74.887V105.381L308.052 100.72H324.247Z" fill="white"/>
<path d="M276.793 70.7H287.379V126H276.793V70.7Z" fill="white"/>
<path d="M588.174 70.7H628.701V79.548H598.76V93.847H625.62V102.616H598.76V117.152H629.649V126H588.174V70.7Z" fill="white"/>
<path d="M572.035 86.1049C570.086 83.8929 567.769 82.1549 565.083 80.8909C562.397 79.5742 559.711 78.9159 557.025 78.9159C554.444 78.9159 552.021 79.4162 549.757 80.4169C547.545 81.3649 545.57 82.7342 543.832 84.5249C542.146 86.2629 540.83 88.2905 539.882 90.6079C538.934 92.9252 538.46 95.4269 538.46 98.1129C538.46 100.799 538.934 103.327 539.882 105.697C540.83 108.014 542.146 110.042 543.832 111.78C545.57 113.518 547.545 114.887 549.757 115.888C552.021 116.889 554.444 117.389 557.025 117.389C559.711 117.389 562.37 116.81 565.004 115.651C567.637 114.44 569.981 112.807 572.035 110.753L578.276 117.31C576.432 119.206 574.299 120.865 571.877 122.287C569.507 123.709 567.005 124.815 564.372 125.605C561.791 126.342 559.158 126.711 556.472 126.711C552.416 126.711 548.624 126 545.096 124.578C541.62 123.103 538.565 121.076 535.932 118.495C533.351 115.914 531.323 112.886 529.849 109.41C528.374 105.934 527.637 102.221 527.637 98.2709C527.637 94.2682 528.374 90.5815 529.849 87.2109C531.323 83.7875 533.404 80.7855 536.09 78.2049C538.776 75.6242 541.857 73.6229 545.333 72.2009C548.861 70.7789 552.706 70.0679 556.867 70.0679C559.553 70.0679 562.16 70.4365 564.688 71.1739C567.268 71.8585 569.717 72.8592 572.035 74.1759C574.352 75.4399 576.406 76.9935 578.197 78.8369L572.035 86.1049Z" fill="white"/>
<path d="M506.648 70.7H517.234V126H506.648V70.7Z" fill="white"/>
<path d="M466.707 70.0679C470.868 70.0679 474.739 70.7789 478.32 72.2009C481.902 73.6229 485.009 75.6242 487.642 78.2049C490.328 80.7855 492.409 83.7875 493.883 87.2109C495.411 90.5815 496.174 94.2682 496.174 98.2709C496.174 102.221 495.411 105.934 493.883 109.41C492.409 112.886 490.328 115.914 487.642 118.495C485.009 121.076 481.902 123.103 478.32 124.578C474.739 126 470.868 126.711 466.707 126.711C462.547 126.711 458.676 126 455.094 124.578C451.566 123.103 448.458 121.076 445.772 118.495C443.086 115.914 440.98 112.912 439.452 109.489C437.978 106.013 437.24 102.274 437.24 98.2709C437.24 94.2682 437.978 90.5552 439.452 87.1319C440.98 83.7085 443.086 80.7329 445.772 78.2049C448.458 75.6242 451.566 73.6229 455.094 72.2009C458.676 70.7789 462.547 70.0679 466.707 70.0679ZM466.865 78.9949C464.285 78.9949 461.862 79.4952 459.597 80.4959C457.333 81.4439 455.331 82.8132 453.593 84.6039C451.855 86.3419 450.486 88.3695 449.485 90.6869C448.537 93.0042 448.063 95.5322 448.063 98.2709C448.063 101.01 448.564 103.564 449.564 105.934C450.565 108.251 451.934 110.305 453.672 112.096C455.41 113.887 457.412 115.282 459.676 116.283C461.941 117.284 464.337 117.784 466.865 117.784C469.393 117.784 471.763 117.284 473.975 116.283C476.24 115.282 478.215 113.887 479.9 112.096C481.586 110.305 482.902 108.251 483.85 105.934C484.851 103.564 485.351 101.01 485.351 98.2709C485.351 95.5322 484.851 93.0042 483.85 90.6869C482.902 88.3695 481.586 86.3419 479.9 84.6039C478.215 82.8132 476.24 81.4439 473.975 80.4959C471.763 79.4952 469.393 78.9949 466.865 78.9949Z" fill="white"/>
<path d="M379.375 70.7H390.751L407.025 114.861L423.378 70.7H434.438L412.239 126H401.258L379.375 70.7Z" fill="white"/>
<path d="M0 139L115.617 0H173.502L0 139ZM2.53906 138.93L254 8.35059V21.4385L7.24121 139H0L202.497 0H241.06L2.53906 138.93Z" fill="white"/>
</svg>
